<svg xmlns="http://www.w3.org/2000/svg" viewBox="0 0 48 48">
  <rect width="48" height="48" rx="10" fill="#0B1220"/>
  <g fill="none" stroke="#C9A24B" stroke-width="2" stroke-linecap="round">
    <path d="M24 8c-2 6-1 10 2 13 3 3 4 7 2 11"/>
    <path d="M24 8c2 6 1 10-2 13-3 3-4 7-2 11"/>
    <path d="M24 8c-6 4-9 8-9 13" stroke-width="1.5"/>
    <path d="M24 8c6 4 9 8 9 13" stroke-width="1.5"/>
    <path d="M16 40c2-3 5-5 8-5s6 2 8 5"/>
  </g>
  <circle cx="28" cy="30" r="2.6" fill="#1F8A8A"/>
  <circle cx="20" cy="30" r="2.6" fill="#1F8A8A"/>
</svg>
